<?xml version="1.0" encoding="utf-8"?>
<!-- Generator: Adobe Illustrator 21.0.0, SVG Export Plug-In . SVG Version: 6.00 Build 0)  -->
<svg version="1.1" id="图层_1" xmlns="http://www.w3.org/2000/svg" xmlns:xlink="http://www.w3.org/1999/xlink" x="0px" y="0px"
	 viewBox="0 0 200 200" style="enable-background:new 0 0 200 200;" xml:space="preserve">
<style type="text/css">
	.st0{fill:#FFCA3A;}
	.st1{fill:#FE4A49;}
	.st2{fill:#8AC926;}
	.st3{fill:none;}
	.st4{fill:#009FB7;}
</style>
<path class="st0" d="M100,64.1c-0.9,0-1.8-0.2-2.6-0.6c-10.3-4.7-20.3-8.4-29.8-10.8c-1.6-0.4-3-1.5-3.8-2.9
	c-0.8-1.5-1.1-3.2-0.6-4.8C71.1,16.4,84.5,0,100,0s28.9,16.4,36.8,44.9c0.4,1.6,0.2,3.3-0.6,4.8s-2.2,2.5-3.8,2.9
	c-9.5,2.5-19.5,6.1-29.8,10.8C101.8,63.9,100.9,64.1,100,64.1z M77,42.3c7.5,2.3,15.2,5.1,23,8.6c7.8-3.5,15.5-6.4,23-8.6
	c-6.1-18.3-14.8-29.8-23-29.8S83.1,24,77,42.3z"/>
<path class="st0" d="M99.8,199.9c-15.5,0-28.9-16.4-36.8-44.9c-0.9-3.3,1-6.8,4.4-7.7c3.3-0.9,6.8,1,7.7,4.3
	c6,21.7,15.8,35.8,24.8,35.8c8.2,0,16.9-11.5,23-29.8c-8.3-2.5-16.9-5.8-25.6-9.8c-3.1-1.4-4.5-5.2-3.1-8.3s5.2-4.5,8.3-3.1
	c10.3,4.7,20.3,8.4,29.8,10.8c1.6,0.4,3,1.5,3.8,2.9c0.8,1.5,1.1,3.2,0.6,4.8C128.7,183.5,115.3,199.9,99.8,199.9z"/>
<path class="st1" d="M130.8,159.6c-0.5,0-1-0.1-1.6-0.2c-10.2-2.6-20.9-6.5-31.9-11.6c-3.1-1.4-4.5-5.2-3.1-8.3s5.2-4.5,8.3-3.1
	c8.1,3.7,16.1,6.8,23.7,9.1c1.8-7.8,3.2-16.2,4-25.1c0.3-3.4,3.4-6,6.8-5.7c3.4,0.3,6,3.4,5.7,6.8c-1.1,12-3.1,23.2-5.9,33.4
	C136,157.8,133.5,159.6,130.8,159.6L130.8,159.6z M161.6,106.3c-1.6,0-3.2-0.6-4.4-1.8c-2.5-2.4-2.5-6.4-0.1-8.8
	c15.8-16.1,23.1-31.6,18.6-39.4c-4.1-7.1-18.4-8.9-37.3-5c2,8.5,3.4,17.5,4.3,27.1c0.3,3.4-2.2,6.5-5.7,6.8
	c-3.4,0.3-6.5-2.2-6.8-5.7c-1-11.2-2.9-21.7-5.5-31.2c-0.4-1.6-0.2-3.3,0.6-4.8c0.8-1.5,2.2-2.5,3.8-2.9c28.7-7.4,49.6-4,57.3,9.4
	s0.3,33.2-20.5,54.4C164.9,105.6,163.3,106.3,161.6,106.3z M43.9,163.3c-14.8,0-25.5-4.5-30.5-13.3c-7.7-13.4-0.3-33.2,20.5-54.4
	c1.2-1.2,2.8-1.9,4.5-1.9s3.3,0.7,4.5,1.9c6.9,7,15,13.8,24.2,20.4c1.5,1.1,2.4,2.7,2.6,4.5c1,11.2,2.9,21.7,5.5,31.2
	c0.4,1.6,0.2,3.3-0.6,4.8s-2.2,2.5-3.8,2.9C60.8,162,51.8,163.3,43.9,163.3z M38.6,108.9c-12.8,14.4-18.4,27.7-14.3,34.8
	s18.4,8.9,37.3,5c-1.8-7.6-3.1-15.7-4-24.2C50.6,119.5,44.2,114.3,38.6,108.9z M69.1,159.6c-2.7,0-5.3-1.8-6-4.6
	c-2.8-10.2-4.8-21.4-5.9-33.4c-0.2-2.4,1-4.8,3.1-6s4.7-1.1,6.7,0.3c5.6,3.9,11.4,7.7,17.3,11.1c5.9,3.4,12.1,6.6,18.2,9.4
	c3.1,1.4,4.5,5.2,3.1,8.3s-5.2,4.5-8.3,3.1c-6.5-3-13-6.4-19.3-10c-2.3-1.3-4.5-2.7-6.8-4.1c1,6.3,2.3,12.3,3.9,17.9
	c0.9,3.3-1,6.8-4.4,7.7C70.2,159.6,69.6,159.6,69.1,159.6z"/>
<path class="st2" d="M136.5,85.2c-3.2,0-5.9-2.4-6.2-5.7c-0.8-8.9-2.1-17.3-4-25.1c-7.7,2.3-15.6,5.4-23.7,9.1
	c-3.1,1.4-6.8,0.1-8.3-3.1c-1.4-3.1-0.1-6.8,3.1-8.3c10.9-5,21.7-8.9,31.9-11.6c3.3-0.9,6.7,1.1,7.6,4.4c2.8,10.2,4.8,21.4,5.9,33.4
	c0.3,3.4-2.2,6.5-5.7,6.8C136.9,85.2,136.7,85.2,136.5,85.2L136.5,85.2z"/>
<path class="st3" d="M63.4,127.3c-1.2,0-2.5-0.4-3.6-1.1c-9.8-6.9-18.6-14.3-25.9-21.8c-2.4-2.4-2.4-6.3,0-8.8
	c7.4-7.5,16.1-14.9,25.9-21.8c2.8-2,6.7-1.3,8.7,1.5S69.8,82,67,84c-7.3,5.2-13.9,10.5-19.8,16c5.8,5.5,12.5,10.8,19.8,16
	c2.8,2,3.5,5.9,1.5,8.7C67.3,126.4,65.4,127.3,63.4,127.3L63.4,127.3z M136.5,127.3c-1.1,0-2.2-0.3-3.1-0.8c-2.1-1.2-3.3-3.6-3.1-6
	c0.6-6.7,0.9-13.6,0.9-20.5s-0.3-13.8-0.9-20.5c-0.3-3.4,2.2-6.5,5.7-6.8c3.4-0.3,6.5,2.2,6.8,5.7c0.6,7.1,1,14.4,1,21.7
	c0,2.6,0,5.3-0.1,7.9c4.9-4,9.5-8.1,13.6-12.3c2.4-2.5,6.4-2.5,8.8-0.1c2.5,2.4,2.5,6.4,0.1,8.8c-7.4,7.5-16.1,14.9-25.9,21.8
	C139.1,126.9,137.8,127.3,136.5,127.3L136.5,127.3z"/>
<path class="st4" d="M63.5,85.2c-2,0-3.9-0.9-5.1-2.6c-2-2.8-1.3-6.7,1.5-8.7c5.9-4.1,12-8.1,18.3-11.7c6.3-3.6,12.7-7,19.3-10
	c3.1-1.4,6.8-0.1,8.3,3.1c1.4,3.1,0.1,6.8-3.1,8.3c-6.2,2.8-12.3,6-18.2,9.4s-11.8,7.2-17.3,11.1C66,84.8,64.7,85.2,63.5,85.2z
	 M136.6,127.3H136c-3.4-0.3-6-3.4-5.7-6.8c0.6-6.7,0.9-13.6,0.9-20.5s-0.3-13.8-0.9-20.5c-0.3-3.4,2.2-6.5,5.7-6.8
	c3.4-0.3,6.5,2.2,6.8,5.7c0.6,7.1,1,14.4,1,21.7s-0.3,14.6-1,21.7C142.4,124.9,139.7,127.3,136.6,127.3L136.6,127.3z"/>
<path class="st2" d="M100.5,77.1c-12.6,0-22.9,10.3-22.9,22.9s10.3,22.9,22.9,22.9s22.9-10.3,22.9-22.9S113.1,77.1,100.5,77.1z
	 M100.5,110.4c-5.7,0-10.4-4.7-10.4-10.4s4.7-10.4,10.4-10.4s10.4,4.7,10.4,10.4C110.9,105.7,106.2,110.4,100.5,110.4z"/>
<path class="st4" d="M33.9,104.4c-21-21-28.2-41-20.5-54.4S42,33.2,70.7,40.6c3.3,0.9,5.4,4.3,4.5,7.6s-4.3,5.4-7.6,4.5
	c-21.8-5.6-38.9-4.2-43.4,3.6c-4.1,7.1,1.5,20.4,14.3,34.8c6.3-5.9,13.5-11.7,21.3-17.3c2.8-2,6.7-1.3,8.7,1.5S69.8,82,67,84
	c-7.3,5.1-14,10.4-19.8,15.9c-0.2,0.2,0.8,0.7,2.2,2c9.4,8.5,37.6,31.5,77,43.8c12.2,3.8,2.5,14.1,2.8,13.8
	C129.7,159,79.5,149.9,33.9,104.4z M156.1,163.3c-7.8,0-16.8-1.3-26.8-3.8c-1.6-0.4-3-1.5-3.8-2.9c-0.8-1.5-1.1-3.2-0.6-4.8
	c2.6-9.5,4.5-20,5.5-31.2c0.2-1.8,1.1-3.5,2.6-4.5c9.2-6.5,17.4-13.4,24.2-20.4c1.2-1.2,2.8-1.9,4.5-1.9s3.3,0.7,4.5,1.9
	c20.8,21.1,28.2,41,20.5,54.4C181.4,158.8,170.8,163.3,156.1,163.3L156.1,163.3z M138.5,148.7c18.9,3.9,33.2,2.1,37.3-5
	s-1.5-20.4-14.3-34.8c-5.7,5.3-12,10.6-19,15.6C141.6,133,140.2,141.1,138.5,148.7z"/>
</svg>
